<svg xmlns="http://www.w3.org/2000/svg" viewBox="0 0 64 64" width="64" height="64">
<rect x="4" y="4" width="4" height="4" fill="#1A1A1A"/>
<rect x="8" y="4" width="4" height="4" fill="#1A1A1A"/>
<rect x="12" y="4" width="4" height="4" fill="#1A1A1A"/>
<rect x="16" y="4" width="4" height="4" fill="#1A1A1A"/>
<rect x="20" y="4" width="4" height="4" fill="#1A1A1A"/>
<rect x="24" y="4" width="4" height="4" fill="#1A1A1A"/>
<rect x="28" y="4" width="4" height="4" fill="#1A1A1A"/>
<rect x="32" y="4" width="4" height="4" fill="#1A1A1A"/>
<rect x="36" y="4" width="4" height="4" fill="#1A1A1A"/>
<rect x="40" y="4" width="4" height="4" fill="#1A1A1A"/>
<rect x="44" y="4" width="4" height="4" fill="#1A1A1A"/>
<rect x="48" y="4" width="4" height="4" fill="#1A1A1A"/>
<rect x="52" y="4" width="4" height="4" fill="#1A1A1A"/>
<rect x="56" y="4" width="4" height="4" fill="#1A1A1A"/>
<rect x="4" y="8" width="4" height="4" fill="#1A1A1A"/>
<rect x="56" y="8" width="4" height="4" fill="#1A1A1A"/>
<rect x="4" y="12" width="4" height="4" fill="#1A1A1A"/>
<rect x="12" y="12" width="4" height="4" fill="#1A1A1A"/>
<rect x="56" y="12" width="4" height="4" fill="#1A1A1A"/>
<rect x="4" y="16" width="4" height="4" fill="#1A1A1A"/>
<rect x="8" y="16" width="4" height="4" fill="#1A1A1A"/>
<rect x="12" y="16" width="4" height="4" fill="#1A1A1A"/>
<rect x="16" y="16" width="4" height="4" fill="#1A1A1A"/>
<rect x="56" y="16" width="4" height="4" fill="#1A1A1A"/>
<rect x="4" y="20" width="4" height="4" fill="#1A1A1A"/>
<rect x="12" y="20" width="4" height="4" fill="#1A1A1A"/>
<rect x="20" y="20" width="4" height="4" fill="#1A1A1A"/>
<rect x="24" y="20" width="4" height="4" fill="#1A1A1A"/>
<rect x="56" y="20" width="4" height="4" fill="#1A1A1A"/>
<rect x="4" y="24" width="4" height="4" fill="#1A1A1A"/>
<rect x="28" y="24" width="4" height="4" fill="#1A1A1A"/>
<rect x="56" y="24" width="4" height="4" fill="#1A1A1A"/>
<rect x="4" y="28" width="4" height="4" fill="#1A1A1A"/>
<rect x="32" y="28" width="4" height="4" fill="#1A1A1A"/>
<rect x="36" y="28" width="4" height="4" fill="#1A1A1A"/>
<rect x="56" y="28" width="4" height="4" fill="#1A1A1A"/>
<rect x="4" y="32" width="4" height="4" fill="#1A1A1A"/>
<rect x="40" y="32" width="4" height="4" fill="#1A1A1A"/>
<rect x="56" y="32" width="4" height="4" fill="#1A1A1A"/>
<rect x="4" y="36" width="4" height="4" fill="#1A1A1A"/>
<rect x="36" y="36" width="4" height="4" fill="#1A1A1A"/>
<rect x="56" y="36" width="4" height="4" fill="#1A1A1A"/>
<rect x="4" y="40" width="4" height="4" fill="#1A1A1A"/>
<rect x="28" y="40" width="4" height="4" fill="#1A1A1A"/>
<rect x="32" y="40" width="4" height="4" fill="#1A1A1A"/>
<rect x="56" y="40" width="4" height="4" fill="#1A1A1A"/>
<rect x="4" y="44" width="4" height="4" fill="#1A1A1A"/>
<rect x="24" y="44" width="4" height="4" fill="#1A1A1A"/>
<rect x="36" y="44" width="4" height="4" fill="#1A1A1A"/>
<rect x="56" y="44" width="4" height="4" fill="#1A1A1A"/>
<rect x="4" y="48" width="4" height="4" fill="#1A1A1A"/>
<rect x="28" y="48" width="4" height="4" fill="#1A1A1A"/>
<rect x="32" y="48" width="4" height="4" fill="#1A1A1A"/>
<rect x="36" y="48" width="4" height="4" fill="#1A1A1A"/>
<rect x="40" y="48" width="4" height="4" fill="#1A1A1A"/>
<rect x="56" y="48" width="4" height="4" fill="#1A1A1A"/>
<rect x="4" y="52" width="4" height="4" fill="#1A1A1A"/>
<rect x="36" y="52" width="4" height="4" fill="#1A1A1A"/>
<rect x="56" y="52" width="4" height="4" fill="#1A1A1A"/>
<rect x="4" y="56" width="4" height="4" fill="#1A1A1A"/>
<rect x="8" y="56" width="4" height="4" fill="#1A1A1A"/>
<rect x="12" y="56" width="4" height="4" fill="#1A1A1A"/>
<rect x="16" y="56" width="4" height="4" fill="#1A1A1A"/>
<rect x="20" y="56" width="4" height="4" fill="#1A1A1A"/>
<rect x="24" y="56" width="4" height="4" fill="#1A1A1A"/>
<rect x="28" y="56" width="4" height="4" fill="#1A1A1A"/>
<rect x="32" y="56" width="4" height="4" fill="#1A1A1A"/>
<rect x="36" y="56" width="4" height="4" fill="#1A1A1A"/>
<rect x="40" y="56" width="4" height="4" fill="#1A1A1A"/>
<rect x="44" y="56" width="4" height="4" fill="#1A1A1A"/>
<rect x="48" y="56" width="4" height="4" fill="#1A1A1A"/>
<rect x="52" y="56" width="4" height="4" fill="#1A1A1A"/>
<rect x="56" y="56" width="4" height="4" fill="#1A1A1A"/>
</svg>