<svg xmlns="http://www.w3.org/2000/svg" viewBox="0 0 64 64" width="64" height="64">
<rect x="24" y="4" width="4" height="4" fill="#1A1A1A"/>
<rect x="28" y="4" width="4" height="4" fill="#1A1A1A"/>
<rect x="32" y="4" width="4" height="4" fill="#1A1A1A"/>
<rect x="36" y="4" width="4" height="4" fill="#1A1A1A"/>
<rect x="40" y="4" width="4" height="4" fill="#1A1A1A"/>
<rect x="20" y="8" width="4" height="4" fill="#1A1A1A"/>
<rect x="24" y="8" width="4" height="4" fill="#1A1A1A"/>
<rect x="32" y="8" width="4" height="4" fill="#1A1A1A"/>
<rect x="40" y="8" width="4" height="4" fill="#1A1A1A"/>
<rect x="44" y="8" width="4" height="4" fill="#1A1A1A"/>
<rect x="20" y="12" width="4" height="4" fill="#1A1A1A"/>
<rect x="44" y="12" width="4" height="4" fill="#1A1A1A"/>
<rect x="20" y="16" width="4" height="4" fill="#1A1A1A"/>
<rect x="44" y="16" width="4" height="4" fill="#1A1A1A"/>
<rect x="20" y="20" width="4" height="4" fill="#1A1A1A"/>
<rect x="44" y="20" width="4" height="4" fill="#1A1A1A"/>
<rect x="20" y="24" width="4" height="4" fill="#1A1A1A"/>
<rect x="24" y="24" width="4" height="4" fill="#1A1A1A"/>
<rect x="40" y="24" width="4" height="4" fill="#1A1A1A"/>
<rect x="44" y="24" width="4" height="4" fill="#1A1A1A"/>
<rect x="24" y="28" width="4" height="4" fill="#1A1A1A"/>
<rect x="28" y="28" width="4" height="4" fill="#1A1A1A"/>
<rect x="32" y="28" width="4" height="4" fill="#1A1A1A"/>
<rect x="36" y="28" width="4" height="4" fill="#1A1A1A"/>
<rect x="40" y="28" width="4" height="4" fill="#1A1A1A"/>
<rect x="20" y="32" width="4" height="4" fill="#1A1A1A"/>
<rect x="24" y="32" width="4" height="4" fill="#1A1A1A"/>
<rect x="40" y="32" width="4" height="4" fill="#1A1A1A"/>
<rect x="44" y="32" width="4" height="4" fill="#1A1A1A"/>
<rect x="16" y="36" width="4" height="4" fill="#1A1A1A"/>
<rect x="20" y="36" width="4" height="4" fill="#1A1A1A"/>
<rect x="44" y="36" width="4" height="4" fill="#1A1A1A"/>
<rect x="48" y="36" width="4" height="4" fill="#1A1A1A"/>
<rect x="16" y="40" width="4" height="4" fill="#1A1A1A"/>
<rect x="48" y="40" width="4" height="4" fill="#1A1A1A"/>
<rect x="16" y="44" width="4" height="4" fill="#1A1A1A"/>
<rect x="32" y="44" width="4" height="4" fill="#1A1A1A"/>
<rect x="48" y="44" width="4" height="4" fill="#1A1A1A"/>
<rect x="16" y="48" width="4" height="4" fill="#1A1A1A"/>
<rect x="48" y="48" width="4" height="4" fill="#1A1A1A"/>
<rect x="16" y="52" width="4" height="4" fill="#1A1A1A"/>
<rect x="20" y="52" width="4" height="4" fill="#1A1A1A"/>
<rect x="44" y="52" width="4" height="4" fill="#1A1A1A"/>
<rect x="48" y="52" width="4" height="4" fill="#1A1A1A"/>
<rect x="20" y="56" width="4" height="4" fill="#1A1A1A"/>
<rect x="24" y="56" width="4" height="4" fill="#1A1A1A"/>
<rect x="40" y="56" width="4" height="4" fill="#1A1A1A"/>
<rect x="44" y="56" width="4" height="4" fill="#1A1A1A"/>
<rect x="24" y="60" width="4" height="4" fill="#1A1A1A"/>
<rect x="28" y="60" width="4" height="4" fill="#1A1A1A"/>
<rect x="32" y="60" width="4" height="4" fill="#1A1A1A"/>
<rect x="36" y="60" width="4" height="4" fill="#1A1A1A"/>
<rect x="40" y="60" width="4" height="4" fill="#1A1A1A"/>
</svg>