<svg xmlns="http://www.w3.org/2000/svg" viewBox="0 0 64 64" width="64" height="64">
<rect x="4" y="16" width="4" height="4" fill="#1A1A1A"/>
<rect x="8" y="16" width="4" height="4" fill="#1A1A1A"/>
<rect x="12" y="16" width="4" height="4" fill="#1A1A1A"/>
<rect x="48" y="16" width="4" height="4" fill="#1A1A1A"/>
<rect x="52" y="16" width="4" height="4" fill="#1A1A1A"/>
<rect x="56" y="16" width="4" height="4" fill="#1A1A1A"/>
<rect x="4" y="20" width="4" height="4" fill="#1A1A1A"/>
<rect x="8" y="20" width="4" height="4" fill="#1A1A1A"/>
<rect x="12" y="20" width="4" height="4" fill="#1A1A1A"/>
<rect x="16" y="20" width="4" height="4" fill="#1A1A1A"/>
<rect x="44" y="20" width="4" height="4" fill="#1A1A1A"/>
<rect x="48" y="20" width="4" height="4" fill="#1A1A1A"/>
<rect x="52" y="20" width="4" height="4" fill="#1A1A1A"/>
<rect x="56" y="20" width="4" height="4" fill="#1A1A1A"/>
<rect x="4" y="24" width="4" height="4" fill="#1A1A1A"/>
<rect x="8" y="24" width="4" height="4" fill="#1A1A1A"/>
<rect x="12" y="24" width="4" height="4" fill="#1A1A1A"/>
<rect x="16" y="24" width="4" height="4" fill="#1A1A1A"/>
<rect x="44" y="24" width="4" height="4" fill="#1A1A1A"/>
<rect x="48" y="24" width="4" height="4" fill="#1A1A1A"/>
<rect x="52" y="24" width="4" height="4" fill="#1A1A1A"/>
<rect x="56" y="24" width="4" height="4" fill="#1A1A1A"/>
<rect x="4" y="28" width="4" height="4" fill="#1A1A1A"/>
<rect x="8" y="28" width="4" height="4" fill="#1A1A1A"/>
<rect x="12" y="28" width="4" height="4" fill="#1A1A1A"/>
<rect x="16" y="28" width="4" height="4" fill="#1A1A1A"/>
<rect x="20" y="28" width="4" height="4" fill="#1A1A1A"/>
<rect x="24" y="28" width="4" height="4" fill="#1A1A1A"/>
<rect x="28" y="28" width="4" height="4" fill="#1A1A1A"/>
<rect x="32" y="28" width="4" height="4" fill="#1A1A1A"/>
<rect x="36" y="28" width="4" height="4" fill="#1A1A1A"/>
<rect x="40" y="28" width="4" height="4" fill="#1A1A1A"/>
<rect x="44" y="28" width="4" height="4" fill="#1A1A1A"/>
<rect x="48" y="28" width="4" height="4" fill="#1A1A1A"/>
<rect x="52" y="28" width="4" height="4" fill="#1A1A1A"/>
<rect x="56" y="28" width="4" height="4" fill="#1A1A1A"/>
<rect x="4" y="32" width="4" height="4" fill="#1A1A1A"/>
<rect x="8" y="32" width="4" height="4" fill="#1A1A1A"/>
<rect x="12" y="32" width="4" height="4" fill="#1A1A1A"/>
<rect x="16" y="32" width="4" height="4" fill="#1A1A1A"/>
<rect x="20" y="32" width="4" height="4" fill="#1A1A1A"/>
<rect x="24" y="32" width="4" height="4" fill="#1A1A1A"/>
<rect x="28" y="32" width="4" height="4" fill="#1A1A1A"/>
<rect x="32" y="32" width="4" height="4" fill="#1A1A1A"/>
<rect x="36" y="32" width="4" height="4" fill="#1A1A1A"/>
<rect x="40" y="32" width="4" height="4" fill="#1A1A1A"/>
<rect x="44" y="32" width="4" height="4" fill="#1A1A1A"/>
<rect x="48" y="32" width="4" height="4" fill="#1A1A1A"/>
<rect x="52" y="32" width="4" height="4" fill="#1A1A1A"/>
<rect x="56" y="32" width="4" height="4" fill="#1A1A1A"/>
<rect x="4" y="36" width="4" height="4" fill="#1A1A1A"/>
<rect x="8" y="36" width="4" height="4" fill="#1A1A1A"/>
<rect x="12" y="36" width="4" height="4" fill="#1A1A1A"/>
<rect x="16" y="36" width="4" height="4" fill="#1A1A1A"/>
<rect x="44" y="36" width="4" height="4" fill="#1A1A1A"/>
<rect x="48" y="36" width="4" height="4" fill="#1A1A1A"/>
<rect x="52" y="36" width="4" height="4" fill="#1A1A1A"/>
<rect x="56" y="36" width="4" height="4" fill="#1A1A1A"/>
<rect x="4" y="40" width="4" height="4" fill="#1A1A1A"/>
<rect x="8" y="40" width="4" height="4" fill="#1A1A1A"/>
<rect x="12" y="40" width="4" height="4" fill="#1A1A1A"/>
<rect x="16" y="40" width="4" height="4" fill="#1A1A1A"/>
<rect x="44" y="40" width="4" height="4" fill="#1A1A1A"/>
<rect x="48" y="40" width="4" height="4" fill="#1A1A1A"/>
<rect x="52" y="40" width="4" height="4" fill="#1A1A1A"/>
<rect x="56" y="40" width="4" height="4" fill="#1A1A1A"/>
<rect x="4" y="44" width="4" height="4" fill="#1A1A1A"/>
<rect x="8" y="44" width="4" height="4" fill="#1A1A1A"/>
<rect x="12" y="44" width="4" height="4" fill="#1A1A1A"/>
<rect x="48" y="44" width="4" height="4" fill="#1A1A1A"/>
<rect x="52" y="44" width="4" height="4" fill="#1A1A1A"/>
<rect x="56" y="44" width="4" height="4" fill="#1A1A1A"/>
</svg>